HIERARCHY
ROOT Hips
{
	OFFSET -0.001795 -0.223333 0.028219
	CHANNELS 6 Xposition Yposition Zposition Zrotation Yrotation Xrotation 
	JOINT LeftUpLeg
	{
		OFFSET 0.069520 -0.091406 -0.006815
		CHANNELS 3 Zrotation Yrotation Xrotation
		JOINT LeftLeg
		{
			OFFSET 0.034277 -0.375199 -0.004496
			CHANNELS 3 Zrotation Yrotation Xrotation
			JOINT LeftFoot
			{
				OFFSET -0.013596 -0.397961 -0.043693
				CHANNELS 3 Zrotation Yrotation Xrotation
				JOINT LeftToe
				{
					OFFSET 0.026358 -0.055791 0.119288
					CHANNELS 3 Zrotation Yrotation Xrotation
					End Site
					{
						OFFSET 0.000000 0.000000 0.000000
					}
				}
			}
		}
	}
	JOINT RightUpLeg
	{
		OFFSET -0.067670 -0.090522 -0.004320
		CHANNELS 3 Zrotation Yrotation Xrotation
		JOINT RightLeg
		{
			OFFSET -0.038290 -0.382569 -0.008850
			CHANNELS 3 Zrotation Yrotation Xrotation
			JOINT RightFoot
			{
				OFFSET 0.015774 -0.398415 -0.042312
				CHANNELS 3 Zrotation Yrotation Xrotation
				JOINT RightToe
				{
					OFFSET -0.025372 -0.048144 0.123348
					CHANNELS 3 Zrotation Yrotation Xrotation
					End Site
					{
						OFFSET 0.000000 0.000000 0.000000
					}
				}
			}
		}
	}
	JOINT Spine
	{
		OFFSET -0.002533 0.108963 -0.026696
		CHANNELS 3 Zrotation Yrotation Xrotation
		JOINT Spine1
		{
			OFFSET 0.005487 0.135180 0.001092
			CHANNELS 3 Zrotation Yrotation Xrotation
			JOINT Spine2
			{
				OFFSET 0.001457 0.052922 0.025425
				CHANNELS 3 Zrotation Yrotation Xrotation
				JOINT Neck
				{
					OFFSET -0.002778 0.213870 -0.042857
					CHANNELS 3 Zrotation Yrotation Xrotation
					JOINT Head
					{
						OFFSET 0.005152 0.064970 0.051349
						CHANNELS 3 Zrotation Yrotation Xrotation
						End Site
						{
							OFFSET 0.000000 0.000000 0.000000
						}
					}
				}
				JOINT LeftShoulder
				{
					OFFSET 0.078845 0.121749 -0.034090
					CHANNELS 3 Zrotation Yrotation Xrotation
					JOINT LeftArm
					{
						OFFSET 0.090977 0.030469 -0.008868
						CHANNELS 3 Zrotation Yrotation Xrotation
						JOINT LeftForeArm
						{
							OFFSET 0.259612 -0.012772 -0.027456
							CHANNELS 3 Zrotation Yrotation Xrotation
							JOINT LeftHand
							{
								OFFSET 0.249234 0.008986 -0.001171
								CHANNELS 3 Zrotation Yrotation Xrotation
								End Site
								{
									OFFSET 0.000000 0.000000 0.000000
								}
							}
						}
					}
				}
				JOINT RightShoulder
				{
					OFFSET -0.081759 0.118833 -0.038615
					CHANNELS 3 Zrotation Yrotation Xrotation
					JOINT RightArm
					{
						OFFSET -0.096012 0.032551 -0.009143
						CHANNELS 3 Zrotation Yrotation Xrotation
						JOINT RightForeArm
						{
							OFFSET -0.253742 -0.013329 -0.021401
							CHANNELS 3 Zrotation Yrotation Xrotation
							JOINT RightHand
							{
								OFFSET -0.255298 0.007772 -0.005559
								CHANNELS 3 Zrotation Yrotation Xrotation
								End Site
								{
									OFFSET 0.000000 0.000000 0.000000
								}
							}
						}
					}
				}
			}
		}
	}
}
MOTION
Frames: 15
Frame Time: 0.050000
0.345297 0.940315 0.071367 -2.415953 -19.542907 14.143427 10.585781 0.797329 -18.512654 -3.142502 0.485058 1.277271 3.507288 7.803984 9.905089 0.000000 0.000000 0.000000 1.399525 4.049888 -27.099507 0.860971 0.562032 10.600331 1.148099 -5.145898 10.875062 0.000000 0.000000 0.000000 -0.208114 0.176592 24.191826 1.407426 -0.517736 -0.064943 -8.284335 3.701663 3.255010 10.152948 -5.419213 -14.423115 0.000000 0.000000 0.000000 11.491094 -42.022355 12.019715 2.676501 -61.480574 -4.383750 26.488028 -4.141192 -0.589207 0.000000 0.000000 0.000000 -5.908560 33.182583 10.750394 20.204992 48.015251 3.976959 -30.972663 16.850269 -3.540190 0.000000 0.000000 0.000000 
0.352538 0.937498 0.079086 -3.041621 -19.586346 14.061333 10.621477 0.831401 -18.724136 -3.183901 0.519129 2.837609 3.718734 8.083604 7.860948 0.000000 0.000000 0.000000 1.094021 4.090321 -27.501197 1.531394 0.597715 12.404209 0.822920 -5.321374 10.075988 0.000000 0.000000 0.000000 -0.948257 0.366202 23.949973 0.844721 -0.275568 -0.273667 -7.943257 2.924233 4.199676 9.604613 -5.345591 -13.564205 0.000000 0.000000 0.000000 6.616810 -38.291784 12.503456 -12.150705 -58.612480 3.050403 31.894450 -17.584466 -3.914284 0.000000 0.000000 0.000000 0.440074 27.976756 9.959929 35.364748 36.847741 6.430183 -38.575267 43.588356 -14.128639 0.000000 0.000000 0.000000 
0.362410 0.934516 0.090031 -3.703949 -19.093433 13.583600 10.846005 0.863238 -18.731908 -3.863612 0.697900 4.854948 3.668980 7.934996 5.281920 0.000000 0.000000 0.000000 1.221871 4.155269 -27.778034 1.225447 0.880545 15.165091 0.253378 -5.898445 9.180757 0.000000 0.000000 0.000000 -1.533757 0.487171 23.859008 0.560919 -0.151731 -0.134630 -7.596110 1.904143 4.555069 8.812288 -5.089890 -12.582405 0.000000 0.000000 0.000000 -0.708577 -33.488388 13.090397 -23.631178 -52.400787 6.961765 35.244499 -37.470729 -9.748534 0.000000 0.000000 0.000000 5.774504 21.925110 7.985182 42.464559 19.563028 2.475338 -32.273755 71.127490 -21.832394 0.000000 0.000000 0.000000 
0.375544 0.931156 0.102496 -3.459793 -19.225207 12.189055 9.667032 0.619875 -18.330207 -4.200136 0.886753 7.602588 3.837589 8.187923 2.484159 0.000000 0.000000 0.000000 0.353780 3.991251 -27.699677 0.802831 1.305600 18.500699 -0.140687 -6.067169 8.116347 0.000000 0.000000 0.000000 -1.914137 0.617790 24.272257 0.069011 0.060282 -0.077802 -7.444319 1.476632 5.157574 8.199870 -4.845109 -12.124432 0.000000 0.000000 0.000000 -4.888282 -29.360148 12.559192 -32.705612 -45.099245 8.173808 33.062703 -54.461998 -13.384865 0.000000 0.000000 0.000000 8.059825 15.515026 5.226221 44.491369 4.394995 -2.581267 64.140731 82.225075 57.977992 0.000000 0.000000 0.000000 
0.390502 0.929147 0.114940 -3.128748 -18.705215 11.535393 8.467701 0.376870 -18.603386 -4.761626 1.124389 9.730968 3.715424 7.878400 0.478575 0.000000 0.000000 0.000000 -0.448415 4.039068 -28.765178 -0.163470 1.986509 22.369774 -0.576131 -6.977361 8.287032 0.000000 0.000000 0.000000 -1.685731 0.527483 24.374963 -0.784714 0.420470 -0.564026 -7.521540 0.390841 6.115154 8.798602 -5.403657 -11.654386 0.000000 0.000000 0.000000 -8.470694 -25.476811 11.874664 -37.368655 -38.271136 7.104838 18.932715 -67.726151 -7.445674 0.000000 0.000000 0.000000 8.386682 9.675251 2.563908 45.168542 -9.182185 -7.438222 105.213959 69.084891 83.179592 0.000000 0.000000 0.000000 
0.404414 0.929290 0.125446 -2.574394 -18.387792 10.823332 7.351846 0.151439 -18.553068 -5.693790 1.450158 11.146261 3.573529 7.543150 -0.320320 0.000000 0.000000 0.000000 -1.424584 3.995792 -29.549255 -0.990484 2.636319 25.464150 -0.655658 -7.608732 9.374453 0.000000 0.000000 0.000000 -1.675168 0.455575 23.693781 -0.849094 0.487680 0.379092 -8.289408 0.661483 5.789850 9.545018 -6.040508 -10.366795 0.000000 0.000000 0.000000 -11.724937 -22.679592 11.119057 -39.240646 -32.604341 5.437706 -13.480607 -72.965943 15.638607 0.000000 0.000000 0.000000 8.438647 5.930617 1.054345 45.750483 -19.671418 -11.365857 108.871436 58.551112 74.936333 0.000000 0.000000 0.000000 
0.414091 0.932574 0.133980 -2.218827 -18.034998 10.946058 5.973988 -0.145885 -17.843298 -5.292875 1.247107 9.859060 3.420295 7.267118 0.231116 0.000000 0.000000 0.000000 -1.674316 4.078159 -30.328290 -2.277412 3.117894 26.081478 -0.682187 -9.286662 13.019838 0.000000 0.000000 0.000000 -1.172929 0.264379 22.904476 -0.761289 0.441385 0.248425 -9.172351 0.944002 6.505838 10.159964 -6.389132 -10.817884 0.000000 0.000000 0.000000 -12.786310 -20.800031 10.326725 -42.116276 -29.362366 4.715217 -31.283778 -72.946833 29.277723 0.000000 0.000000 0.000000 7.790927 2.180445 -0.379853 45.797619 -25.062290 -13.450644 110.217901 51.012548 67.036384 0.000000 0.000000 0.000000 
0.418511 0.938232 0.140707 -2.355194 -18.468452 11.140824 5.595528 -0.217012 -16.619410 -5.185095 1.124582 8.024823 3.462707 7.454888 1.759248 0.000000 0.000000 0.000000 -1.230960 4.222007 -30.420150 -2.459597 2.938113 24.400576 1.898920 -3.002104 10.419012 0.000000 0.000000 0.000000 -1.002538 0.177069 21.611977 -0.571682 0.375492 0.589513 -9.879722 1.756943 6.600789 11.481376 -7.085595 -11.640835 0.000000 0.000000 0.000000 -13.681465 -18.431780 9.131016 -44.632498 -26.372205 3.957586 -40.597697 -71.208047 35.444266 0.000000 0.000000 0.000000 8.907269 0.741252 -1.072939 45.745711 -28.006917 -14.497626 111.661784 47.102520 63.741292 0.000000 0.000000 0.000000 
0.417422 0.942449 0.146190 -1.953434 -17.334826 11.701357 4.678664 -0.425704 -15.844721 -4.220721 0.771345 5.640251 2.919811 6.483928 3.137478 0.000000 0.000000 0.000000 -0.811563 3.889057 -28.711261 -3.177180 2.345088 19.487009 2.797364 -2.138511 12.101726 0.000000 0.000000 0.000000 -0.925370 0.045722 19.975561 0.147648 0.067018 1.391466 -10.113310 1.526056 6.198285 11.287316 -6.589931 -13.341973 0.000000 0.000000 0.000000 -14.683454 -17.605346 8.787046 -45.996253 -24.751578 3.531259 -38.245087 -70.872041 33.311527 0.000000 0.000000 0.000000 8.497530 0.712386 -0.987796 48.398458 -28.523331 -15.685003 114.672367 45.559107 64.863143 0.000000 0.000000 0.000000 
0.412644 0.943901 0.150532 -2.055853 -16.467408 11.861924 4.703275 -0.451144 -15.225109 -3.572274 0.600320 4.731812 2.546986 5.802781 3.448205 0.000000 0.000000 0.000000 0.471290 3.720644 -26.884179 -4.539074 2.197514 16.226209 2.308512 -3.679621 13.146705 0.000000 0.000000 0.000000 -0.921419 0.003173 19.724890 0.726083 -0.242455 0.122012 -10.161020 2.693166 6.798893 13.535434 -7.601774 -14.950542 0.000000 0.000000 0.000000 -15.030618 -17.956796 8.728614 -46.821482 -23.932086 3.274627 -27.878387 -70.758544 25.064268 0.000000 0.000000 0.000000 9.304558 0.664217 -0.941098 49.910554 -26.343701 -15.344286 118.297177 44.592276 68.225770 0.000000 0.000000 0.000000 
0.406176 0.943911 0.153401 -1.897878 -15.567341 12.176010 4.842057 -0.466427 -15.443364 -3.325785 0.539352 4.724159 2.188260 5.127163 3.471859 0.000000 0.000000 0.000000 0.554353 3.420753 -25.468321 -4.382775 1.809230 13.782118 1.921466 -3.953917 12.472217 0.000000 0.000000 0.000000 -0.929695 -0.063658 18.415669 1.228845 -0.462031 0.712431 -10.310255 3.138841 5.725658 13.771932 -7.412254 -15.831570 0.000000 0.000000 0.000000 -15.019189 -19.609751 9.306254 -46.262185 -25.262883 3.883327 -11.809500 -69.112623 12.520630 0.000000 0.000000 0.000000 10.418046 2.465909 -0.135420 51.173706 -22.601443 -14.106752 124.732672 45.959898 78.429617 0.000000 0.000000 0.000000 
0.399593 0.942571 0.155012 -2.031943 -14.487030 12.106345 5.550449 -0.402219 -15.453376 -3.465079 0.557495 5.064572 1.800579 4.319124 2.958957 0.000000 0.000000 0.000000 1.200260 3.196296 -23.937081 -4.510305 1.585614 11.911941 1.396052 -4.383258 11.607393 0.000000 0.000000 0.000000 -0.937786 -0.110211 17.793773 2.479248 -1.041142 0.760657 -10.917704 4.118863 4.824238 14.691782 -7.599659 -16.644757 0.000000 0.000000 0.000000 -15.310104 -23.281565 10.841354 -44.660999 -27.798691 4.791997 5.482057 -65.084090 0.014806 0.000000 0.000000 0.000000 12.352375 5.008023 1.169096 50.383026 -15.786630 -10.993498 131.575986 49.888110 94.472608 0.000000 0.000000 0.000000 
0.393397 0.942238 0.155257 -2.042845 -14.272288 11.918722 6.204933 -0.315000 -15.804559 -3.861700 0.661053 6.202622 1.717329 4.141907 2.834211 0.000000 0.000000 0.000000 1.630197 3.088935 -23.049910 -4.498986 1.468448 10.968418 1.277196 -4.346881 11.143208 0.000000 0.000000 0.000000 -0.887832 -0.130581 17.607983 2.861875 -1.220602 1.402902 -11.269683 4.533312 3.005884 14.492363 -7.082526 -17.595539 0.000000 0.000000 0.000000 -14.452592 -27.069219 12.433005 -42.047739 -33.929591 6.826672 16.833057 -56.192205 -6.284456 0.000000 0.000000 0.000000 13.466095 9.287480 3.363866 48.125194 -5.001759 -6.263415 135.511189 60.199574 113.641730 0.000000 0.000000 0.000000 
0.387902 0.941504 0.154149 -1.874021 -13.110146 11.728255 6.255158 -0.347519 -16.053727 -3.427319 0.564670 6.626886 1.273802 3.258133 2.675213 0.000000 0.000000 0.000000 1.794894 2.997789 -22.615886 -4.382838 1.411512 10.742957 0.669067 -5.152883 10.692197 0.000000 0.000000 0.000000 -0.673098 -0.213942 17.299093 3.680980 -1.620015 1.833904 -12.385919 4.857139 1.928656 15.373410 -7.601073 -16.930603 0.000000 0.000000 0.000000 -13.245784 -32.263916 14.585179 -35.928130 -41.548736 7.988351 22.823862 -42.928323 -7.150644 0.000000 0.000000 0.000000 12.844107 14.644792 6.269987 46.170801 7.079283 -1.632292 144.240818 75.994891 140.396610 0.000000 0.000000 0.000000 
0.383465 0.941524 0.151647 -1.815332 -12.762782 11.134414 6.540004 -0.314009 -16.006325 -3.423817 0.576807 7.391902 1.102394 2.940258 2.728074 0.000000 0.000000 0.000000 1.743402 2.935456 -22.351290 -3.737790 1.347543 11.279093 0.446158 -5.439429 10.512089 0.000000 0.000000 0.000000 -0.292731 -0.297404 17.855596 3.003603 -1.326190 2.684317 -12.150131 5.863857 1.040807 15.560625 -7.477736 -17.310916 0.000000 0.000000 0.000000 -9.485083 -38.564373 16.545153 -27.349673 -50.243439 7.496959 24.472561 -28.536203 -5.063525 0.000000 0.000000 0.000000 9.543009 20.707054 9.102965 42.705474 21.876884 3.508596 -58.103456 78.009346 -43.359991 0.000000 0.000000 0.000000 
